<?xml version="1.0" standalone="no"?>
<!DOCTYPE svg PUBLIC "-//W3C//DTD SVG 20010904//EN"
 "http://www.w3.org/TR/2001/REC-SVG-20010904/DTD/svg10.dtd">
<svg version="1.0" xmlns="http://www.w3.org/2000/svg"
 width="512.000000pt" height="512.000000pt" viewBox="0 0 512.000000 512.000000"
 preserveAspectRatio="xMidYMid meet">
<metadata>
Created by potrace 1.14, written by Peter Selinger 2001-2017
</metadata>
<g transform="translate(0.000000,512.000000) scale(0.100000,-0.100000)"
fill="#000000" stroke="none">
<path d="M415 5110 c-183 -38 -330 -170 -391 -350 -18 -53 -19 -134 -19 -2200
0 -2066 1 -2147 19 -2200 52 -154 168 -274 322 -332 l59 -23 2155 0 2155 0 59
23 c154 58 270 178 322 332 18 53 19 134 19 2200 0 2066 -1 2147 -19 2200 -52
154 -168 274 -322 332 l-59 23 -2130 1 c-1172 1 -2148 -2 -2170 -6z m2271
-1115 c178 -17 360 -51 478 -90 103 -34 258 -113 338 -174 92 -70 235 -226
296 -324 329 -527 304 -1274 -58 -1753 -217 -287 -511 -450 -950 -526 -107
-19 -171 -21 -907 -25 l-793 -4 0 39 0 40 108 4 c128 5 194 29 247 90 62 73
60 31 60 1283 0 907 -3 1150 -13 1190 -20 77 -53 119 -119 151 -49 24 -73 29
-168 34 l-110 5 -3 38 -3 37 719 0 c567 0 752 -3 878 -15z"/>
<path d="M2170 3835 c-52 -7 -128 -21 -167 -30 l-73 -17 0 -1238 c0 -1171 1
-1239 18 -1244 81 -23 339 -56 439 -56 486 0 900 295 1067 758 40 113 75 301
82 452 29 590 -202 1053 -631 1268 -95 47 -150 67 -265 93 -113 26 -342 33
-470 14z"/>
</g>
</svg>
